<svg width="63" height="65" viewBox="0 0 63 65" fill="none" xmlns="http://www.w3.org/2000/svg">
<path d="M49.3078 43.0028C46.3817 47.9702 41.3282 51.9318 35.7454 53.9043C30.164 55.8763 24.1688 55.8248 19.2969 52.955C14.425 50.0852 11.4736 44.8665 10.4925 39.0289C9.51118 33.1897 10.5261 26.8493 13.4522 21.8818C16.3784 16.9144 21.4318 12.9529 27.0146 10.9804C32.596 9.00835 38.5912 9.05982 43.4631 11.9296C48.3351 14.7995 51.2865 20.0181 52.2676 25.8558C53.2489 31.6949 52.2339 38.0353 49.3078 43.0028Z" stroke="#331B3B" stroke-opacity="0.64" stroke-width="2"/>
<g clip-path="url(#clip0_437_9)">
<path d="M32.2796 22.7627C35.4343 22.7627 35.8046 22.7768 37.0515 22.833C38.2046 22.8846 38.8281 23.0768 39.2452 23.2408C39.7984 23.4565 40.1921 23.7096 40.6046 24.1221C41.0171 24.5346 41.2749 24.9283 41.4859 25.4815C41.6452 25.8986 41.8421 26.5221 41.8937 27.6752C41.9499 28.9221 41.964 29.2924 41.964 32.4471C41.964 35.6018 41.9499 35.9721 41.8937 37.219C41.8421 38.3721 41.6499 38.9955 41.4859 39.4127C41.2702 39.9658 41.0171 40.3596 40.6046 40.7721C40.1921 41.1846 39.7984 41.4424 39.2452 41.6533C38.8281 41.8127 38.2046 42.0096 37.0515 42.0611C35.8046 42.1174 35.4343 42.1315 32.2796 42.1315C29.1249 42.1315 28.7546 42.1174 27.5077 42.0611C26.3546 42.0096 25.7312 41.8174 25.314 41.6533C24.7609 41.4377 24.3671 41.1846 23.9546 40.7721C23.5421 40.3596 23.2843 39.9658 23.0734 39.4127C22.914 38.9955 22.7171 38.3721 22.6656 37.219C22.6093 35.9721 22.5952 35.6018 22.5952 32.4471C22.5952 29.2924 22.6093 28.9221 22.6656 27.6752C22.7171 26.5221 22.9093 25.8986 23.0734 25.4815C23.289 24.9283 23.5421 24.5346 23.9546 24.1221C24.3671 23.7096 24.7609 23.4518 25.314 23.2408C25.7312 23.0815 26.3546 22.8846 27.5077 22.833C28.7546 22.7721 29.1249 22.7627 32.2796 22.7627ZM32.2796 20.6346C29.0734 20.6346 28.6702 20.6486 27.4093 20.7049C26.1531 20.7611 25.2952 20.9627 24.5452 21.2533C23.7671 21.5533 23.1109 21.9611 22.4546 22.6174C21.7984 23.2736 21.3952 23.9346 21.0906 24.708C20.7999 25.458 20.5984 26.3158 20.5421 27.5768C20.4859 28.833 20.4718 29.2361 20.4718 32.4424C20.4718 35.6486 20.4859 36.0518 20.5421 37.3127C20.5984 38.569 20.7999 39.4268 21.0906 40.1815C21.3906 40.9596 21.7984 41.6158 22.4546 42.2721C23.1109 42.9283 23.7718 43.3315 24.5452 43.6361C25.2952 43.9268 26.1531 44.1283 27.414 44.1846C28.6749 44.2408 29.0734 44.2549 32.2843 44.2549C35.4952 44.2549 35.8937 44.2408 37.1546 44.1846C38.4109 44.1283 39.2687 43.9268 40.0234 43.6361C40.8015 43.3361 41.4577 42.9283 42.114 42.2721C42.7702 41.6158 43.1734 40.9549 43.4781 40.1815C43.7687 39.4315 43.9702 38.5736 44.0265 37.3127C44.0827 36.0518 44.0968 35.6533 44.0968 32.4424C44.0968 29.2315 44.0827 28.833 44.0265 27.5721C43.9702 26.3158 43.7687 25.458 43.4781 24.7033C43.1781 23.9252 42.7702 23.269 42.114 22.6127C41.4577 21.9565 40.7968 21.5533 40.0234 21.2486C39.2734 20.958 38.4156 20.7565 37.1546 20.7002C35.889 20.6486 35.4859 20.6346 32.2796 20.6346Z" fill="#331B3B"/>
<path d="M32.2796 26.3768C28.9327 26.3768 26.214 29.0908 26.214 32.4424C26.214 35.794 28.9327 38.508 32.2796 38.508C35.6265 38.508 38.3452 35.7893 38.3452 32.4424C38.3452 29.0955 35.6265 26.3768 32.2796 26.3768ZM32.2796 36.3799C30.1046 36.3799 28.3421 34.6174 28.3421 32.4424C28.3421 30.2674 30.1046 28.5049 32.2796 28.5049C34.4546 28.5049 36.2171 30.2674 36.2171 32.4424C36.2171 34.6174 34.4546 36.3799 32.2796 36.3799Z" fill="#331B3B"/>
<path d="M38.5843 27.5534C39.3662 27.5534 40 26.9196 40 26.1377C40 25.3559 39.3662 24.7221 38.5843 24.7221C37.8025 24.7221 37.1687 25.3559 37.1687 26.1377C37.1687 26.9196 37.8025 27.5534 38.5843 27.5534Z" fill="#331B3B"/>
</g>
<defs>
<clipPath id="clip0_437_9">
<rect width="24" height="24" fill="white" transform="translate(20.2797 20.4425)"/>
</clipPath>
</defs>
</svg>
